{"accessors":[{"bufferView":3,"componentType":5126,"count":13334,"max":[0.000014107145034358837,0.000017997574104811065,0.000045378863433143124],"min":[-0.000017520658730063587,-0.000018116321371053346,-0.00008074340439634398],"type":"VEC3"},{"bufferView":3,"byteOffset":160008,"componentType":5126,"count":13334,"max":[1,1,1],"min":[-1,-1,-1],"type":"VEC3"},{"bufferView":4,"componentType":5126,"count":13334,"max":[1,1,1,1],"min":[-1,-1,-1,-1],"type":"VEC4"},{"bufferView":2,"componentType":5126,"count":13334,"max":[0.9771534204483032,0.9968276619911194],"min":[0.011444007977843285,0.0049410597421228886],"type":"VEC2"},{"bufferView":1,"componentType":5125,"count":53412,"type":"SCALAR"},{"bufferView":5,"componentType":5126,"count":17,"max":[1,200,200,0,200,1,0,0,3.1724739502081434e-10,200,1,0,0.0022883196361362934,0.015024011954665184,0.002385603031143546,1],"min":[-172.3076934814453,-0.000026204581445199437,-120.00001525878906,0,0,-0.000060537779063452035,-172.3076934814453,0,-0.000015359008102677763,-200,-200,0,-0.0023236493580043316,-0.006750831380486488,-0.01590856909751892,1],"type":"MAT4"},{"bufferView":0,"componentType":5123,"count":13334,"type":"VEC4"},{"bufferView":4,"byteOffset":213344,"componentType":5126,"count":13334,"max":[1,0.5,0.33114978671073914,0],"min":[0.3371735215187073,0,0,0],"type":"VEC4"}],"asset":{"extras":{"author":"MG Rips (https://sketchfab.com/MG_GameRips)","license":"SKETCHFAB Standard (https://sketchfab.com/licenses)","source":"https://sketchfab.com/3d-models/krampus-is-home-nutcracker-2a69f91cfcbd40fda2b6e7b3036183b3","title":"Krampus is Home - Nutcracker"},"generator":"Sketchfab-16.14.0","version":"2.0"},"bufferViews":[{"buffer":0,"byteLength":106672,"byteStride":8,"name":"shortBufferViews","target":34962},{"buffer":0,"byteLength":213648,"byteOffset":106672,"name":"floatBufferViews","target":34963},{"buffer":0,"byteLength":106672,"byteOffset":320320,"byteStride":8,"name":"floatBufferViews","target":34962},{"buffer":0,"byteLength":320016,"byteOffset":426992,"byteStride":12,"name":"floatBufferViews","target":34962},{"buffer":0,"byteLength":426688,"byteOffset":747008,"byteStride":16,"name":"floatBufferViews","target":34962},{"buffer":0,"byteLength":1088,"byteOffset":1173696,"name":"floatBufferViews"}],"buffers":[{"byteLength":1174784,"uri":"data:application/octet-stream;base64,"}],"extensionsRequired":["KHR_materials_pbrSpecularGlossiness"],"extensionsUsed":["KHR_materials_pbrSpecularGlossiness"],"images":[{"uri":"data:application/octet-stream;base64,"},{"uri":"data:application/octet-stream;base64,"}],"materials":[{"doubleSided":true,"extensions":{"KHR_materials_pbrSpecularGlossiness":{"diffuseFactor":[1,1,1,1],"diffuseTexture":{"index":0},"glossinessFactor":0.5,"specularFactor":[0.1,0.1,0.1]}},"name":"NutcrackerMat","normalTexture":{"index":1}}],"meshes":[{"name":"NutcrackerMesh_NutcrackerMat_0","primitives":[{"attributes":{"JOINTS_0":6,"NORMAL":1,"POSITION":0,"TANGENT":2,"TEXCOORD_0":3,"TEXCOORD_1":3,"WEIGHTS_0":7},"indices":4,"material":0,"mode":4}]}],"nodes":[{"children":[1],"matrix":[-2.220446049250313e-16,-4.440892098500626e-16,1,0,-1,-1.6081226229577287e-16,-2.2204460492503136e-16,0,1.6081226229577292e-16,-1,-4.440892098500626e-16,0,0,0,0,1],"name":"Sketchfab_model"},{"children":[2],"matrix":[0.009999999776482582,0,0,0,0,-0.009999999776482582,0,0,0,0,-0.009999999776482582,0,0,0,0,1],"name":"cb20b4ca05724162944ea73571b685af.fbx"},{"children":[3],"name":"RootNode"},{"children":[4],"matrix":[-0.000008742278012618954,199.99999999999983,-2.220446049250313e-14,0,0.000008742278023721184,3.9968028886505635e-13,199.99999999999983,0,199.99999999999963,0.000008742278023721184,-0.000008742278012618954,0,0,0,0,1],"name":"Nutcracker"},{"children":[5,23,22],"name":"Object_4"},{"children":[6],"name":"_rootJoint"},{"children":[7],"name":"Root_00","rotation":[0.7071068286895752,-1.1338020300399876e-8,-1.1338018524043036e-8,0.7071067094802856],"translation":[-6.241560868147644e-7,-0.01590856909751892,0.00036739182542078197]},{"children":[8,16,19],"name":"Spine_0_01","rotation":[-0.7071068286895752,-3.207347798808713e-12,2.2672828947634116e-8,0.7071067094802856],"translation":[-8.976662684290204e-7,-0.000026424415409564972,-0.011908558197319508]},{"children":[9,11,12,14],"name":"Head_02","rotation":[-7.275956193097954e-8,-3.55304402164993e-15,5.250780323538377e-20,1],"translation":[5.33226454990654e-7,0.002289160154759884,2.8015350039822806e-7]},{"children":[10],"name":"Hat_Base_03","rotation":[1.5522285886392795e-19,-1.537255656103298e-8,5.3290696508390134e-12,1],"translation":[5.638917599526394e-8,0.005835697054862976,4.274262010994789e-8]},{"name":"Hat_End_04","rotation":[-1.115767384660528e-19,2.584963454164764e-19,-3.5527130282791974e-12,1],"translation":[-6.378483874414087e-8,0.0026259850710630417,-5.952442450052331e-8]},{"name":"Mouth_05","rotation":[1.4573005660608697e-19,-1.537255656103298e-8,4.736950848932553e-12,1],"translation":[5.6203361964435317e-8,0.0019493841100484133,-0.001727300463244319]},{"children":[13],"name":"Upperarm_L_06","rotation":[-7.523135146670091e-37,3.552713678800501e-15,2.1175742902000814e-22,1],"translation":[0.0023246374912559986,0.0026049157604575157,0.000027460160708869807]},{"name":"Lowerarm_L_07","rotation":[0.8682432174682617,-8.032723997075664e-8,-0.4961390197277069,-1.5975342648744117e-7],"translation":[0.00023479761148337275,-0.006057580467313528,-0.000011402869859011844]},{"children":[15],"name":"Upperarm_R_08","rotation":[-7.523135146670091e-37,3.552713678800501e-15,2.1175742902000814e-22,1],"translation":[-0.0022873315028846264,0.0026049157604575157,0.000027460657292976975]},{"name":"Lowerarm_R_09","rotation":[0.8944272398948669,-8.360489545111705e-8,-0.4472135305404663,-1.7241600858142192e-7],"translation":[-0.00026567932218313217,-0.006057863589376211,-0.0000114023860078305]},{"children":[17],"name":"Thigh_L_010","rotation":[-7.275956193097954e-8,-3.55304402164993e-15,5.250780323538377e-20,1],"translation":[0.0007534591131843626,-0.0002972343936562538,0.00001386992971674772]},{"children":[18],"name":"Calf_L_011","rotation":[-7.523135146670091e-37,3.552713678800501e-15,2.1175742902000814e-22,1],"translation":[0.00011293102579656988,-0.006356186233460903,0.000012438388694135938]},{"name":"Foot_L_012","rotation":[-7.52319254385519e-37,-3.552713678800501e-15,-2.1175904460714203e-22,1],"translation":[5.332523187462357e-7,-0.004370568320155144,4.019024757440093e-8]},{"children":[20],"name":"Thigh_R_013","rotation":[-7.275956193097954e-8,-3.55304402164993e-15,5.250780323538377e-20,1],"translation":[-0.0007781418389640749,-0.0002972343936562538,0.000013870095244783442]},{"children":[21],"name":"Calf_R_014","rotation":[1.4551911675653173e-8,3.552779747370387e-15,-1.0270276101045526e-20,1],"translation":[-0.00008659214654471725,-0.0063561927527189255,0.000012438065823516808]},{"name":"Foot_R_015","rotation":[-6.617444900424222e-24,-3.552713678800501e-15,-2.1175904460714203e-22,1],"translation":[-8.972591558631393e-7,-0.004370573908090591,4.004278153502128e-8]},{"matrix":[-40000,0.003019916037696757,0.0017484555428382003,0,-0.0030199163225563485,-40000.00000000024,-0.006516827356662616,0,0.0017484550508314147,-0.006516827488667315,40000.00000000024,0,-11.259876632264058,12.44490705353538,-95.07828345205539,1],"name":"Object_22"},{"mesh":0,"name":"Object_23","skin":0}],"samplers":[{"magFilter":9729,"minFilter":9987,"wrapS":10497,"wrapT":10497}],"scene":0,"scenes":[{"name":"Sketchfab_Scene","nodes":[0]}],"skins":[{"inverseBindMatrices":5,"joints":[5,6,7,8,9,10,11,12,13,14,15,16,17,18,19,20,21],"skeleton":5}],"textures":[{"sampler":0,"source":0},{"sampler":0,"source":1}]}